<?xml version="1.0" standalone="no"?>
<!DOCTYPE svg PUBLIC "-//W3C//DTD SVG 20010904//EN"
 "http://www.w3.org/TR/2001/REC-SVG-20010904/DTD/svg10.dtd">
<svg version="1.0" xmlns="http://www.w3.org/2000/svg"
 width="150.000000pt" height="150.000000pt" viewBox="0 0 150.000000 150.000000"
 preserveAspectRatio="xMidYMid meet">
<metadata>
Created by potrace 1.16, written by Peter Selinger 2001-2019
</metadata>
<g transform="translate(0.000000,150.000000) scale(0.100000,-0.100000)"
fill="#000000" stroke="none">
<path d="M821 1251 l-74 -38 -91 19 -91 19 -40 -46 -40 -45 -77 0 -76 0 -64
-75 c-34 -42 -64 -80 -66 -85 -2 -6 196 -10 548 -10 352 0 550 4 548 10 -1 5
-32 43 -66 85 l-64 75 -67 0 -67 0 -64 65 c-36 35 -67 65 -70 64 -3 0 -38 -17
-79 -38z"/>
<path d="M120 880 c0 -56 1 -60 24 -60 21 0 32 -21 111 -210 94 -223 109 -243
133 -175 20 55 64 85 124 85 44 0 54 -4 84 -34 21 -21 34 -44 34 -60 l0 -26
109 0 109 0 7 27 c18 79 110 117 185 78 30 -16 60 -61 60 -90 0 -11 7 -15 22
-13 18 2 36 37 107 210 82 198 87 207 114 208 26 0 27 1 27 60 l0 60 -625 0
-625 0 0 -60z"/>
<path d="M450 463 c-28 -23 -31 -31 -28 -70 l3 -43 -197 0 -198 0 0 -35 c0
-33 2 -35 35 -35 31 0 35 -3 35 -25 0 -25 1 -25 80 -25 79 0 80 0 80 25 0 24
3 25 60 25 57 0 60 -1 60 -25 0 -25 1 -25 80 -25 79 0 80 0 80 25 0 24 2 25
65 25 63 0 65 -1 65 -25 0 -24 2 -25 75 -25 73 0 75 1 75 25 0 24 2 25 65 25
63 0 65 -1 65 -25 0 -24 2 -25 75 -25 73 0 75 1 75 25 0 24 2 25 65 25 63 0
65 -1 65 -25 0 -24 2 -25 75 -25 73 0 75 1 75 25 0 23 4 25 40 25 39 0 40 1
40 35 l0 35 -199 0 -199 0 5 40 c5 34 2 43 -25 70 -34 34 -67 38 -112 15 -35
-18 -57 -74 -40 -105 11 -20 9 -20 -144 -20 l-154 0 5 40 c5 34 2 43 -25 70
-39 38 -79 40 -122 3z"/>
</g>
</svg>
