<?xml version="1.0" standalone="no"?>
<!DOCTYPE svg PUBLIC "-//W3C//DTD SVG 20010904//EN"
 "http://www.w3.org/TR/2001/REC-SVG-20010904/DTD/svg10.dtd">
<svg version="1.0" xmlns="http://www.w3.org/2000/svg"
 width="150.000000pt" height="150.000000pt" viewBox="0 0 150.000000 150.000000"
 preserveAspectRatio="xMidYMid meet">
<metadata>
Created by potrace 1.16, written by Peter Selinger 2001-2019
</metadata>
<g transform="translate(0.000000,150.000000) scale(0.100000,-0.100000)"
fill="#000000" stroke="none">
<path d="M201 1274 c-26 -21 -31 -33 -31 -68 0 -53 21 -82 69 -97 101 -30 170
98 89 166 -39 33 -87 33 -127 -1z"/>
<path d="M481 1010 c-17 -39 -31 -72 -31 -75 0 -8 228 -6 233 3 3 4 8 37 12
75 l7 67 -94 0 -95 0 -32 -70z"/>
<path d="M746 1034 c-3 -26 -6 -60 -6 -75 l0 -29 111 0 111 0 -7 68 c-4 37 -9
70 -12 75 -2 4 -46 7 -97 7 l-93 0 -7 -46z"/>
<path d="M994 1063 c3 -10 8 -44 12 -75 l6 -58 120 0 c66 0 118 4 116 8 -1 4
-16 38 -33 75 l-29 67 -99 0 c-89 0 -98 -2 -93 -17z"/>
<path d="M549 882 l-127 -3 -31 -69 c-17 -39 -31 -75 -31 -80 0 -6 57 -10 148
-10 l149 0 11 82 c7 45 11 82 9 82 -1 1 -59 0 -128 -2z"/>
<path d="M1025 830 c3 -30 8 -67 11 -82 l6 -28 149 0 c82 0 149 3 149 8 0 4
-14 39 -32 79 l-33 72 -128 3 -129 3 7 -55z"/>
<path d="M726 863 c-2 -10 -8 -46 -11 -80 l-7 -63 142 0 142 0 -6 40 c-3 22
-9 58 -12 80 l-6 40 -118 0 c-104 0 -119 -2 -124 -17z"/>
<path d="M290 584 c-22 -47 -40 -88 -40 -90 0 -2 85 -4 189 -4 l189 0 6 45 c3
25 9 65 12 90 l6 45 -161 0 -162 0 -39 -86z"/>
<path d="M697 638 c-3 -18 -9 -59 -13 -90 l-6 -58 172 0 173 0 -6 28 c-3 15
-9 55 -13 90 l-7 62 -147 0 -148 0 -5 -32z"/>
<path d="M1055 603 c12 -126 -10 -113 201 -113 111 0 184 4 184 10 0 5 -15 44
-34 87 l-35 78 -162 3 -161 3 7 -68z"/>
<path d="M250 385 l0 -55 275 0 275 0 0 -70 0 -70 -85 0 -85 0 0 -50 0 -50
220 0 220 0 0 50 0 50 -85 0 -85 0 0 70 0 70 270 0 270 0 0 55 0 55 -595 0
-595 0 0 -55z"/>
</g>
</svg>
