<?xml version="1.0" standalone="no"?>
<!DOCTYPE svg PUBLIC "-//W3C//DTD SVG 20010904//EN"
 "http://www.w3.org/TR/2001/REC-SVG-20010904/DTD/svg10.dtd">
<svg version="1.0" xmlns="http://www.w3.org/2000/svg"
 width="150.000000pt" height="150.000000pt" viewBox="0 0 150.000000 150.000000"
 preserveAspectRatio="xMidYMid meet">
<metadata>
Created by potrace 1.16, written by Peter Selinger 2001-2019
</metadata>
<g transform="translate(0.000000,150.000000) scale(0.100000,-0.100000)"
fill="#000000" stroke="none">
<path d="M298 1140 c-11 -18 -24 -20 -106 -20 -104 0 -132 -9 -132 -44 0 -32
15 -36 131 -36 82 0 99 -3 99 -15 0 -9 -7 -18 -15 -21 -9 -4 -15 -19 -15 -40
0 -29 -3 -34 -24 -34 -26 0 -56 -33 -56 -61 0 -33 38 -51 132 -65 51 -8 121
-23 155 -35 l61 -20 -49 -121 c-45 -112 -49 -128 -49 -205 l0 -83 40 0 40 0 0
79 c0 70 5 93 42 186 37 94 44 106 62 101 12 -3 36 -6 54 -6 30 0 32 -2 32
-35 0 -32 -3 -35 -28 -35 -15 0 -33 -5 -40 -12 -16 -16 -16 -160 0 -176 16
-16 220 -16 236 0 16 16 16 160 0 176 -7 7 -25 12 -40 12 -25 0 -28 3 -28 35
0 33 2 35 33 35 17 0 41 3 53 6 18 5 25 -7 62 -101 37 -93 42 -116 42 -186 l0
-79 40 0 40 0 0 83 c0 77 -4 93 -49 205 l-49 122 66 20 c37 12 107 27 155 34
118 18 150 48 111 104 -8 12 -26 22 -40 22 -21 0 -24 5 -24 34 0 21 -6 36 -15
40 -8 3 -15 12 -15 21 0 12 17 15 99 15 116 0 131 4 131 36 0 35 -28 44 -132
44 -82 0 -95 2 -106 20 -7 11 -22 20 -33 20 -12 0 -23 -8 -26 -20 -5 -18 -14
-20 -105 -20 -105 0 -138 -9 -138 -39 0 -33 24 -40 136 -43 l109 -3 -22 -22
c-13 -13 -23 -30 -23 -38 0 -8 -1 -15 -2 -15 -2 0 -52 7 -113 15 -140 19 -330
19 -470 0 -60 -8 -111 -15 -112 -15 -2 0 -3 7 -3 15 0 8 -10 25 -22 38 l-23
22 109 3 c112 3 136 10 136 43 0 30 -32 39 -134 39 -85 0 -96 2 -106 20 -6 11
-20 20 -30 20 -11 0 -25 -9 -32 -20z"/>
</g>
</svg>
